<svg width="91" height="20" viewBox="0 0 91 20" fill="none" xmlns="http://www.w3.org/2000/svg">
<rect width="91" height="20" fill="#E4CF12"/>
<path d="M35.53 6.278V10.898C35.53 11.36 35.6437 11.7157 35.871 11.965C36.0983 12.2143 36.432 12.339 36.872 12.339C37.312 12.339 37.6493 12.2143 37.884 11.965C38.1187 11.7157 38.236 11.36 38.236 10.898V6.278H40.117V10.887C40.117 11.5763 39.9703 12.1593 39.677 12.636C39.3837 13.1127 38.9877 13.472 38.489 13.714C37.9977 13.956 37.4477 14.077 36.839 14.077C36.2303 14.077 35.684 13.9597 35.2 13.725C34.7233 13.483 34.3457 13.1237 34.067 12.647C33.7883 12.163 33.649 11.5763 33.649 10.887V6.278H35.53ZM49.2699 7.796C50.0325 7.796 50.6375 8.027 51.0849 8.489C51.5395 8.951 51.7669 9.59267 51.7669 10.414V14H49.8969V10.667C49.8969 10.271 49.7905 9.96667 49.5779 9.754C49.3725 9.534 49.0865 9.424 48.7199 9.424C48.3532 9.424 48.0635 9.534 47.8509 9.754C47.6455 9.96667 47.5429 10.271 47.5429 10.667V14H45.6729V10.667C45.6729 10.271 45.5665 9.96667 45.3539 9.754C45.1485 9.534 44.8625 9.424 44.4959 9.424C44.1292 9.424 43.8395 9.534 43.6269 9.754C43.4215 9.96667 43.3189 10.271 43.3189 10.667V14H41.4379V7.862H43.3189V8.632C43.5095 8.37533 43.7589 8.17367 44.0669 8.027C44.3749 7.873 44.7232 7.796 45.1119 7.796C45.5739 7.796 45.9845 7.895 46.3439 8.093C46.7105 8.291 46.9965 8.57333 47.2019 8.94C47.4145 8.60267 47.7042 8.32767 48.0709 8.115C48.4375 7.90233 48.8372 7.796 49.2699 7.796ZM54.9634 8.731C55.1394 8.445 55.3924 8.214 55.7224 8.038C56.0524 7.862 56.4301 7.774 56.8554 7.774C57.3614 7.774 57.8197 7.90233 58.2304 8.159C58.6411 8.41567 58.9637 8.78233 59.1984 9.259C59.4404 9.73567 59.5614 10.2893 59.5614 10.92C59.5614 11.5507 59.4404 12.108 59.1984 12.592C58.9637 13.0687 58.6411 13.439 58.2304 13.703C57.8197 13.9597 57.3614 14.088 56.8554 14.088C56.4227 14.088 56.0451 14.0037 55.7224 13.835C55.3997 13.659 55.1467 13.428 54.9634 13.142V14H53.0824V5.86H54.9634V8.731ZM57.6474 10.92C57.6474 10.4507 57.5154 10.084 57.2514 9.82C56.9947 9.54867 56.6757 9.413 56.2944 9.413C55.9204 9.413 55.6014 9.54867 55.3374 9.82C55.0807 10.0913 54.9524 10.4617 54.9524 10.931C54.9524 11.4003 55.0807 11.7707 55.3374 12.042C55.6014 12.3133 55.9204 12.449 56.2944 12.449C56.6684 12.449 56.9874 12.3133 57.2514 12.042C57.5154 11.7633 57.6474 11.3893 57.6474 10.92ZM62.4292 8.885C62.6492 8.54767 62.9242 8.28367 63.2542 8.093C63.5842 7.895 63.9509 7.796 64.3542 7.796V9.787H63.8372C63.3679 9.787 63.0159 9.88967 62.7812 10.095C62.5465 10.293 62.4292 10.645 62.4292 11.151V14H60.5482V7.862H62.4292V8.885ZM71.0393 10.832C71.0393 11.008 71.0283 11.1913 71.0063 11.382H66.7493C66.7786 11.7633 66.8996 12.0567 67.1123 12.262C67.3323 12.46 67.6 12.559 67.9153 12.559C68.3846 12.559 68.711 12.361 68.8943 11.965H70.8963C70.7936 12.3683 70.6066 12.7313 70.3353 13.054C70.0713 13.3767 69.7376 13.6297 69.3343 13.813C68.931 13.9963 68.48 14.088 67.9813 14.088C67.38 14.088 66.8446 13.9597 66.3753 13.703C65.906 13.4463 65.5393 13.0797 65.2753 12.603C65.0113 12.1263 64.8793 11.569 64.8793 10.931C64.8793 10.293 65.0076 9.73567 65.2643 9.259C65.5283 8.78233 65.895 8.41567 66.3643 8.159C66.8336 7.90233 67.3726 7.774 67.9813 7.774C68.5753 7.774 69.1033 7.89867 69.5653 8.148C70.0273 8.39733 70.3866 8.753 70.6433 9.215C70.9073 9.677 71.0393 10.216 71.0393 10.832ZM69.1143 10.337C69.1143 10.0143 69.0043 9.75767 68.7843 9.567C68.5643 9.37633 68.2893 9.281 67.9593 9.281C67.644 9.281 67.3763 9.37267 67.1563 9.556C66.9436 9.73933 66.8116 9.99967 66.7603 10.337H69.1143ZM73.9126 5.86V14H72.0316V5.86H73.9126ZM77.1568 5.86V14H75.2758V5.86H77.1568ZM78.1459 10.92C78.1459 10.2893 78.2632 9.73567 78.4979 9.259C78.7399 8.78233 79.0662 8.41567 79.4769 8.159C79.8876 7.90233 80.3459 7.774 80.8519 7.774C81.2846 7.774 81.6622 7.862 81.9849 8.038C82.3149 8.214 82.5679 8.445 82.7439 8.731V7.862H84.6249V14H82.7439V13.131C82.5606 13.417 82.3039 13.648 81.9739 13.824C81.6512 14 81.2736 14.088 80.8409 14.088C80.3422 14.088 79.8876 13.9597 79.4769 13.703C79.0662 13.439 78.7399 13.0687 78.4979 12.592C78.2632 12.108 78.1459 11.5507 78.1459 10.92ZM82.7439 10.931C82.7439 10.4617 82.6119 10.0913 82.3479 9.82C82.0912 9.54867 81.7759 9.413 81.4019 9.413C81.0279 9.413 80.7089 9.54867 80.4449 9.82C80.1882 10.084 80.0599 10.4507 80.0599 10.92C80.0599 11.3893 80.1882 11.7633 80.4449 12.042C80.7089 12.3133 81.0279 12.449 81.4019 12.449C81.7759 12.449 82.0912 12.3133 82.3479 12.042C82.6119 11.7707 82.7439 11.4003 82.7439 10.931Z" fill="#111518"/>
<path d="M17.5455 20V4.04545C17.5455 3.46767 17.0778 3 16.5 3C15.9222 3 15.4545 3.46767 15.4545 4.04545V20H17.5455Z" fill="#111518"/>
<path d="M16.5 4.39394C10.1492 4.39394 5 8.4503 5 13.4545C5 13.4545 5 14.8485 5.69697 14.8485C6.39394 14.8485 7.78788 13.4545 7.78788 13.4545H25.2121C25.2121 13.4545 26.6061 14.8485 27.303 14.8485C28 14.8485 28 13.4545 28 13.4545C28 8.4503 22.8515 4.39394 16.5 4.39394Z" fill="#323232"/>
<path d="M16.5 4.39394C11.6888 4.39394 7.78788 8.4503 7.78788 13.4545C7.78788 13.4545 7.78788 14.8485 9.18182 14.8485C10.5758 14.8485 12.6667 13.4545 12.6667 13.4545H20.3333C20.3333 13.4545 22.4242 14.8485 23.8182 14.8485C25.2121 14.8485 25.2121 13.4545 25.2121 13.4545C25.2121 8.4503 21.3119 4.39394 16.5 4.39394Z" fill="#747474"/>
<path d="M16.5 4.39394C13.9979 4.39394 12.6667 8.4503 12.6667 13.4545C12.6667 13.4545 14.7576 14.8485 16.1515 14.8485H16.8485C18.2424 14.8485 20.3333 13.4545 20.3333 13.4545C20.3333 8.4503 19.0021 4.39394 16.5 4.39394Z" fill="#323232"/>
</svg>
