<svg width="121" height="28" viewBox="0 0 121 28" fill="none" xmlns="http://www.w3.org/2000/svg">
<rect x="0.5" y="0.5" width="120" height="27" fill="#0D0F12" stroke="#24292F"/>
<path d="M49.42 9.172V15.052C49.42 15.64 49.5647 16.0927 49.854 16.41C50.1433 16.7273 50.568 16.886 51.128 16.886C51.688 16.886 52.1173 16.7273 52.416 16.41C52.7147 16.0927 52.864 15.64 52.864 15.052V9.172H55.258V15.038C55.258 15.9153 55.0713 16.6573 54.698 17.264C54.3247 17.8707 53.8207 18.328 53.186 18.636C52.5607 18.944 51.8607 19.098 51.086 19.098C50.3113 19.098 49.616 18.9487 49 18.65C48.3933 18.342 47.9127 17.8847 47.558 17.278C47.2033 16.662 47.026 15.9153 47.026 15.038V9.172H49.42ZM66.9071 11.104C67.8778 11.104 68.6478 11.398 69.2171 11.986C69.7958 12.574 70.0851 13.3907 70.0851 14.436V19H67.7051V14.758C67.7051 14.254 67.5698 13.8667 67.2991 13.596C67.0378 13.316 66.6738 13.176 66.2071 13.176C65.7404 13.176 65.3718 13.316 65.1011 13.596C64.8398 13.8667 64.7091 14.254 64.7091 14.758V19H62.3291V14.758C62.3291 14.254 62.1938 13.8667 61.9231 13.596C61.6618 13.316 61.2978 13.176 60.8311 13.176C60.3644 13.176 59.9958 13.316 59.7251 13.596C59.4638 13.8667 59.3331 14.254 59.3331 14.758V19H56.9391V11.188H59.3331V12.168C59.5758 11.8413 59.8931 11.5847 60.2851 11.398C60.6771 11.202 61.1204 11.104 61.6151 11.104C62.2031 11.104 62.7258 11.23 63.1831 11.482C63.6498 11.734 64.0138 12.0933 64.2751 12.56C64.5458 12.1307 64.9144 11.7807 65.3811 11.51C65.8478 11.2393 66.3564 11.104 66.9071 11.104ZM74.1534 12.294C74.3774 11.93 74.6994 11.636 75.1194 11.412C75.5394 11.188 76.0201 11.076 76.5614 11.076C77.2054 11.076 77.7887 11.2393 78.3114 11.566C78.8341 11.8927 79.2447 12.3593 79.5434 12.966C79.8514 13.5727 80.0054 14.2773 80.0054 15.08C80.0054 15.8827 79.8514 16.592 79.5434 17.208C79.2447 17.8147 78.8341 18.286 78.3114 18.622C77.7887 18.9487 77.2054 19.112 76.5614 19.112C76.0107 19.112 75.5301 19.0047 75.1194 18.79C74.7087 18.566 74.3867 18.272 74.1534 17.908V19H71.7594V8.64H74.1534V12.294ZM77.5694 15.08C77.5694 14.4827 77.4014 14.016 77.0654 13.68C76.7387 13.3347 76.3327 13.162 75.8474 13.162C75.3714 13.162 74.9654 13.3347 74.6294 13.68C74.3027 14.0253 74.1394 14.4967 74.1394 15.094C74.1394 15.6913 74.3027 16.1627 74.6294 16.508C74.9654 16.8533 75.3714 17.026 75.8474 17.026C76.3234 17.026 76.7294 16.8533 77.0654 16.508C77.4014 16.1533 77.5694 15.6773 77.5694 15.08ZM83.6554 12.49C83.9354 12.0607 84.2854 11.7247 84.7054 11.482C85.1254 11.23 85.592 11.104 86.1054 11.104V13.638H85.4474C84.85 13.638 84.402 13.7687 84.1034 14.03C83.8047 14.282 83.6554 14.73 83.6554 15.374V19H81.2614V11.188H83.6554V12.49ZM94.6136 14.968C94.6136 15.192 94.5996 15.4253 94.5716 15.668H89.1536C89.191 16.1533 89.345 16.5267 89.6156 16.788C89.8956 17.04 90.2363 17.166 90.6376 17.166C91.235 17.166 91.6503 16.914 91.8836 16.41H94.4316C94.301 16.9233 94.063 17.3853 93.7176 17.796C93.3816 18.2067 92.957 18.5287 92.4436 18.762C91.9303 18.9953 91.3563 19.112 90.7216 19.112C89.9563 19.112 89.275 18.9487 88.6776 18.622C88.0803 18.2953 87.6136 17.8287 87.2776 17.222C86.9416 16.6153 86.7736 15.906 86.7736 15.094C86.7736 14.282 86.937 13.5727 87.2636 12.966C87.5996 12.3593 88.0663 11.8927 88.6636 11.566C89.261 11.2393 89.947 11.076 90.7216 11.076C91.4776 11.076 92.1496 11.2347 92.7376 11.552C93.3256 11.8693 93.783 12.322 94.1096 12.91C94.4456 13.498 94.6136 14.184 94.6136 14.968ZM92.1636 14.338C92.1636 13.9273 92.0236 13.6007 91.7436 13.358C91.4636 13.1153 91.1136 12.994 90.6936 12.994C90.2923 12.994 89.9516 13.1107 89.6716 13.344C89.401 13.5773 89.233 13.9087 89.1676 14.338H92.1636ZM98.2706 8.64V19H95.8766V8.64H98.2706ZM102.4 8.64V19H100.006V8.64H102.4ZM103.658 15.08C103.658 14.2773 103.808 13.5727 104.106 12.966C104.414 12.3593 104.83 11.8927 105.352 11.566C105.875 11.2393 106.458 11.076 107.102 11.076C107.653 11.076 108.134 11.188 108.544 11.412C108.964 11.636 109.286 11.93 109.51 12.294V11.188H111.904V19H109.51V17.894C109.277 18.258 108.95 18.552 108.53 18.776C108.12 19 107.639 19.112 107.088 19.112C106.454 19.112 105.875 18.9487 105.352 18.622C104.83 18.286 104.414 17.8147 104.106 17.208C103.808 16.592 103.658 15.8827 103.658 15.08ZM109.51 15.094C109.51 14.4967 109.342 14.0253 109.006 13.68C108.68 13.3347 108.278 13.162 107.802 13.162C107.326 13.162 106.92 13.3347 106.584 13.68C106.258 14.016 106.094 14.4827 106.094 15.08C106.094 15.6773 106.258 16.1533 106.584 16.508C106.92 16.8533 107.326 17.026 107.802 17.026C108.278 17.026 108.68 16.8533 109.006 16.508C109.342 16.1627 109.51 15.6913 109.51 15.094Z" fill="white"/>
<path d="M24.5636 26.6V5.66363C24.5636 4.85473 23.9089 4.2 23.1 4.2C22.2911 4.2 21.6364 4.85473 21.6364 5.66363V26.6H24.5636Z" fill="#595D63"/>
<path d="M23.1 6.15151C14.2089 6.15151 7 11.8304 7 18.8364C7 18.8364 7 20.7879 7.97576 20.7879C8.95152 20.7879 10.903 18.8364 10.903 18.8364H35.297C35.297 18.8364 37.2485 20.7879 38.2242 20.7879C39.2 20.7879 39.2 18.8364 39.2 18.8364C39.2 11.8304 31.9921 6.15151 23.1 6.15151Z" fill="#E5BB3F"/>
<path d="M23.1 6.15151C16.3643 6.15151 10.903 11.8304 10.903 18.8364C10.903 18.8364 10.903 20.7879 12.8545 20.7879C14.8061 20.7879 17.7333 18.8364 17.7333 18.8364H28.4667C28.4667 18.8364 31.3939 20.7879 33.3455 20.7879C35.297 20.7879 35.297 18.8364 35.297 18.8364C35.297 11.8304 29.8366 6.15151 23.1 6.15151Z" fill="#BD712B"/>
<path d="M23.1 6.15151C19.597 6.15151 17.7333 11.8304 17.7333 18.8364C17.7333 18.8364 20.6606 20.7879 22.6121 20.7879H23.5879C25.5394 20.7879 28.4667 18.8364 28.4667 18.8364C28.4667 11.8304 26.603 6.15151 23.1 6.15151Z" fill="#E5BB3F"/>
</svg>
